<svg width="475" height="559" viewBox="0 0 475 559" fill="none" xmlns="http://www.w3.org/2000/svg">
<path d="M237.746 558.644C352.979 558.644 446.393 433.587 446.393 279.322C446.393 125.057 352.979 0 237.746 0C122.514 0 29.0994 125.057 29.0994 279.322C29.0994 433.587 122.514 558.644 237.746 558.644Z" fill="#DFF6FF"/>
<path d="M390.4 216.866C386.535 216.834 382.784 216.169 380.137 211.097C374.944 201.135 367.014 192.194 358.121 202.323C352.992 208.163 356.849 220.18 352.436 225.961C348.532 231.072 343.564 230.225 341.573 238.71C338.636 251.19 347.891 262.126 350.863 272.919C353.356 281.974 347.749 285.427 345.229 292.483C343.286 297.927 344.286 303.752 346.412 308.954C350.144 318.128 358.42 325.513 356.503 337.387C354.903 347.286 353.415 356.135 359.949 363.646C364.426 368.794 372.738 373.489 372.105 383.019C371.88 386.393 370.135 389.267 369.658 392.594C368.902 397.855 371.433 402.979 374.391 406.59C381.119 414.81 387.029 422.558 392.068 432.9C394.222 437.315 402.843 447.293 399.397 453.335C405.661 442.355 412.281 431.705 417.971 420.163C422.653 410.66 429.707 396.802 424.904 385.09C423.425 381.455 420.633 378.755 419.876 374.721C418.503 367.455 423.836 360.716 425.818 354.527C428.929 344.822 426.646 333.542 421.162 326.265C418.569 322.82 415.753 319.027 415.374 314.161C414.957 308.847 417.445 303.894 418.574 298.993C419.593 294.418 420.286 289.725 420.645 284.976C420.914 281.662 421.017 278.269 420.435 275.03C419.326 268.865 415.179 265.436 412.112 261.061C404.804 250.652 408.646 238.405 405.452 226.305C402.582 215.449 396.357 216.91 390.4 216.866Z" fill="#1D7E8E"/>
<path d="M400.178 465.712C402.89 424.078 400.4 382.117 394.654 341.117C389.173 302.006 381.98 262.756 371.076 225.679C367.494 213.413 363.405 201.422 358.827 189.763" stroke="#00A09D" stroke-width="5" stroke-miterlimit="10"/>
<path d="M334.279 245.591C349.606 252.839 364.165 262.72 377.591 274.986C380.989 278.098 382.885 279.049 385.718 283.048" stroke="#00A09D" stroke-width="5" stroke-miterlimit="10"/>
<path d="M392.98 327.65C378.23 314.909 361.684 306.358 344.365 302.528" stroke="#00A09D" stroke-width="5" stroke-miterlimit="10"/>
<path d="M398.788 381.353C385.032 365.435 368.533 354.35 350.78 349.095" stroke="#00A09D" stroke-width="5" stroke-miterlimit="10"/>
<path d="M384.958 281.674C386.039 259.588 390.112 237.95 396.978 217.816" stroke="#00A09D" stroke-width="5" stroke-miterlimit="10"/>
<path d="M392.79 325.834C399.771 305.875 409.736 288.046 422.07 273.45" stroke="#00A09D" stroke-width="5" stroke-miterlimit="10"/>
<path d="M399.693 382.873C400.656 376.714 402.333 370.794 404.662 365.329C407.368 358.994 410.911 353.359 414.516 347.875C417.11 343.916 419.75 340.018 422.437 336.183" stroke="#00A09D" stroke-width="5" stroke-miterlimit="10"/>
<path d="M437.846 292.745C440.653 293.438 443.442 293.651 445.885 290.46C450.685 284.2 457.361 279.183 462.764 288.179C465.879 293.366 461.841 301.368 464.444 306.393C466.748 310.823 470.436 311.144 471.007 317.654C471.847 327.251 464 333.491 460.729 340.749C457.985 346.854 461.697 350.398 462.8 355.985C463.645 360.292 462.321 364.331 460.247 367.712C456.591 373.675 449.824 377.5 449.987 386.468C450.123 393.955 450.283 400.639 444.773 404.875C440.993 407.782 434.48 409.627 433.954 416.678C433.767 419.165 434.735 421.576 434.737 424.074C434.737 428.034 432.371 431.277 429.846 433.348C424.117 438.063 419.03 442.589 414.303 449.158C412.286 451.961 404.999 457.603 406.874 462.62C403.467 453.513 399.776 444.545 396.818 435.118C394.405 427.365 390.722 415.986 395.416 408.395C396.875 406.02 399.169 404.582 400.148 401.803C401.896 396.786 398.726 390.914 397.924 386.06C396.67 378.446 399.495 370.69 404.224 366.422C406.463 364.402 408.897 362.177 409.675 358.717C410.527 354.939 409.234 350.885 408.921 347.119C408.652 343.606 408.632 340.066 408.861 336.548C409.01 334.093 409.284 331.614 410.044 329.373C411.485 325.105 414.848 323.39 417.527 320.785C423.904 314.585 422.384 304.991 425.951 296.807C429.157 289.458 433.522 291.675 437.846 292.745Z" fill="#00A09D"/>
<path d="M405.017 471.442C407.353 440.74 413.499 410.763 421.905 382.085C429.923 354.73 439.198 327.595 450.942 302.722C454.809 294.487 459.014 286.547 463.539 278.938" stroke="#1D7E8E" stroke-width="5" stroke-miterlimit="10"/>
<path d="M475.588 323.98C463.721 326.398 452.139 330.868 441.132 337.28C438.343 338.903 436.87 339.26 434.4 341.635" stroke="#1D7E8E" stroke-width="5" stroke-miterlimit="10"/>
<path d="M424.537 372.626C436.552 366.119 449.437 362.983 462.394 363.412" stroke="#1D7E8E" stroke-width="5" stroke-miterlimit="10"/>
<path d="M414.756 410.506C426.378 401.51 439.489 396.526 452.909 396.002" stroke="#1D7E8E" stroke-width="5" stroke-miterlimit="10"/>
<path d="M435.096 340.764C436.598 324.539 435.88 308.083 432.978 292.202" stroke="#1D7E8E" stroke-width="5" stroke-miterlimit="10"/>
<path d="M424.848 371.343C421.846 355.573 416.461 340.794 409.024 327.92" stroke="#1D7E8E" stroke-width="5" stroke-miterlimit="10"/>
<path d="M413.94 411.444C413.877 406.799 413.272 402.195 412.147 397.8C410.84 392.696 408.853 387.957 406.806 383.312C405.331 379.966 403.819 376.65 402.269 373.366" stroke="#1D7E8E" stroke-width="5" stroke-miterlimit="10"/>
<path d="M377.748 460.81H435.081L425.022 537.619H387.807L377.748 460.81Z" fill="#9D786A"/>
<path d="M370.726 460.806H442.099V439.247H370.726V460.806Z" fill="#94624F"/>
<path opacity="0.1" d="M433.747 470.994H379.081L377.748 460.81H435.081L433.747 470.994Z" fill="#231F20"/>
<path d="M94.084 491.037H14.5923V500.742H94.084V491.037Z" fill="#94624F"/>
<path d="M89.2189 335.415H20.6732V351.158H89.2189V335.415Z" fill="#94624F"/>
<path d="M109.191 324.681H0.69751V335.415H109.191V324.681Z" fill="#9D786A"/>
<path d="M106.121 537.904H97.4347L80.6003 351.154H89.2834L106.121 537.904Z" fill="#94624F"/>
<path d="M3.77045 537.904H12.4539L29.2916 351.154H20.6052L3.77045 537.904Z" fill="#94624F"/>
<path d="M58.0188 335.415H51.8729V537.904H58.0188V335.415Z" fill="#9D786A"/>
<path d="M60.382 258.883L60.4323 253.384" stroke="#151614" stroke-miterlimit="10"/>
<path d="M68.2699 259.374H52.5976V319.296H68.2699V259.374Z" fill="#D74034"/>
<path d="M68.2699 259.378H52.5976L53.8871 257.41H66.9301L68.2699 259.378Z" fill="#EF5132"/>
<path d="M80.6058 268.901L80.6563 263.401" stroke="#151614" stroke-miterlimit="10"/>
<path d="M88.4908 269.392H72.8186V319.296H88.4908V269.392Z" fill="#D74034"/>
<path d="M88.4942 269.392H72.8186L74.1083 267.424H87.1511L88.4942 269.392Z" fill="#EF5132"/>
<path d="M47.3389 319.3H93.4363V322.574C93.4363 323.082 93.2859 323.568 93.0175 323.927C92.7498 324.286 92.3865 324.487 92.0079 324.487H48.7674C48.3886 324.487 48.0252 324.286 47.7573 323.927C47.4894 323.568 47.3389 323.082 47.3389 322.574V319.3Z" fill="#0B2D4E"/>
<path d="M15.7428 267.618H45.4697V314.339C45.4697 317.07 44.6595 319.688 43.2175 321.618C41.7753 323.549 39.8194 324.634 37.7799 324.634H23.4326C21.3932 324.634 19.4372 323.549 17.9951 321.618C16.553 319.688 15.7428 317.07 15.7428 314.339V267.618Z" fill="#00A09D"/>
<path d="M47.5459 280.51C40.4181 280.51 34.6389 288.358 34.6389 298.042C34.6389 307.727 40.4181 315.562 47.5459 315.562C54.6738 315.562 60.4559 307.723 60.4559 298.042C60.4559 288.362 54.6767 280.51 47.5459 280.51ZM47.5459 309.322C45.8745 309.354 44.2335 308.721 42.832 307.501C41.4305 306.281 40.3316 304.53 39.6752 302.473C39.0188 300.414 38.8345 298.142 39.1458 295.942C39.4572 293.744 40.25 291.718 41.4234 290.125C42.5969 288.531 44.098 287.44 45.7357 286.992C47.3735 286.543 49.0738 286.757 50.6206 287.606C52.1673 288.454 53.4906 289.9 54.422 291.758C55.3533 293.617 55.8507 295.804 55.8508 298.042C55.8666 301.012 55.0006 303.869 53.4432 305.985C51.8857 308.1 49.7645 309.301 47.5459 309.322Z" fill="#00A09D"/>
<path opacity="0.2" d="M20.1911 302.983C19.7648 302.982 19.3565 302.754 19.0551 302.35C18.7537 301.946 18.5837 301.4 18.5822 300.83V273.09C18.5837 272.519 18.7538 271.974 19.0553 271.57C19.3568 271.167 19.7651 270.941 20.1911 270.94C20.6165 270.942 21.0241 271.169 21.3249 271.572C21.6258 271.974 21.7955 272.52 21.797 273.09V300.83C21.7955 301.399 21.6259 301.946 21.3252 302.349C21.0243 302.752 20.6168 302.98 20.1911 302.983Z" fill="white"/>
<path d="M38.6051 267.618V314.541C38.6055 315.865 38.4111 317.175 38.0329 318.398C37.6548 319.621 37.1004 320.732 36.4013 321.667C35.7023 322.603 34.8724 323.346 33.959 323.852C33.0456 324.358 32.0666 324.618 31.078 324.618H37.9426C38.9314 324.618 39.9104 324.358 40.824 323.852C41.7376 323.346 42.5677 322.603 43.267 321.668C43.9662 320.732 44.521 319.621 44.8994 318.398C45.2778 317.175 45.4726 315.865 45.4726 314.541V267.618H38.6051Z" fill="#1D7E8E"/>
<path d="M182.351 466.658H289.759C319.554 466.658 343.587 434.017 343.153 394.13L343.218 194.266C343.012 175.488 337.296 157.572 327.305 144.39C317.314 131.209 303.849 123.819 289.821 123.819H184.53C170.504 123.822 157.041 131.212 147.051 144.394C137.061 157.575 131.347 175.49 131.142 194.266L128.966 394.13C128.522 434.017 152.555 466.658 182.351 466.658Z" fill="#66BBC4"/>
<path d="M182.351 467.656H289.759C319.554 467.656 343.587 435.01 343.153 395.127C343.153 395.127 343.552 281.159 343.197 254.67C294.778 344.217 179.05 345.12 130.474 255.676C130.054 290.46 128.957 395.127 128.957 395.127C128.522 435.01 152.555 467.656 182.351 467.656Z" fill="#66A5AF"/>
<path d="M157.264 402.694H316.339C317.564 402.694 318.557 401.364 318.557 399.724V350.188C318.557 348.548 317.564 347.218 316.339 347.218H157.264C156.039 347.218 155.046 348.548 155.046 350.188V399.724C155.046 401.364 156.039 402.694 157.264 402.694Z" fill="#66BBC4"/>
<path d="M160.831 347.214H313.148C314.633 347.215 316.057 348.006 317.107 349.412C318.156 350.818 318.747 352.725 318.747 354.714H155.232C155.232 352.725 155.822 350.818 156.872 349.412C157.922 348.006 159.346 347.215 160.831 347.214Z" fill="#8ED2CC"/>
<path d="M160.645 402.69H312.961C314.446 402.689 315.869 401.898 316.919 400.494C317.969 399.088 318.559 397.182 318.56 395.194H155.046C155.047 397.182 155.637 399.088 156.687 400.494C157.737 401.898 159.16 402.689 160.645 402.69Z" fill="#66A5AF"/>
<path d="M119.581 501.644H355.888V473.658H119.581V501.644Z" fill="#94624F"/>
<path d="M329.893 508.126C329.894 511.679 330.682 515.153 332.157 518.107C333.632 521.061 335.729 523.363 338.181 524.723C340.633 526.082 343.332 526.438 345.935 525.744C348.539 525.05 350.93 523.338 352.806 520.826C354.684 518.312 355.962 515.11 356.479 511.626C356.997 508.14 356.731 504.528 355.715 501.245C354.699 497.962 352.978 495.156 350.771 493.182C348.565 491.207 345.97 490.154 343.315 490.154C341.552 490.154 339.807 490.618 338.179 491.522C336.55 492.425 335.07 493.749 333.824 495.418C332.577 497.086 331.589 499.068 330.914 501.248C330.24 503.429 329.893 505.766 329.893 508.126Z" fill="#94624F"/>
<path d="M350.916 530.401C352.686 524.791 350.725 518.322 346.535 515.951C342.345 513.581 337.512 516.206 335.742 521.816C333.971 527.426 335.932 533.895 340.122 536.266C344.313 538.637 349.145 536.01 350.916 530.401Z" fill="#94624F"/>
<path d="M134.578 526.112C141.792 523.832 146.26 514.155 144.557 504.497C142.854 494.839 135.626 488.858 128.412 491.137C121.197 493.417 116.729 503.094 118.432 512.752C120.135 522.41 127.363 528.391 134.578 526.112Z" fill="#94624F"/>
<path d="M123.273 526.576C123.273 528.758 123.756 530.891 124.662 532.706C125.567 534.519 126.854 535.934 128.36 536.768C129.866 537.603 131.522 537.821 133.121 537.395C134.72 536.969 136.188 535.918 137.34 534.375C138.492 532.832 139.277 530.866 139.595 528.726C139.912 526.586 139.748 524.368 139.124 522.352C138.5 520.337 137.444 518.614 136.088 517.402C134.733 516.191 133.139 515.545 131.509 515.546C130.427 515.546 129.356 515.83 128.357 516.385C127.357 516.94 126.449 517.752 125.684 518.777C124.919 519.801 124.312 521.017 123.899 522.355C123.485 523.694 123.272 525.128 123.273 526.576Z" fill="#94624F"/>
<path d="M135.431 258.547C136.046 262.289 147.853 332.05 148.418 337.534C148.983 343.018 148.228 360.3 148.255 357.224C148.282 354.147 148.075 363.741 152.579 362.79C154.83 362.319 171.972 354.911 189.378 351.237C206.828 347.551 224.55 347.594 226.262 347.182C229.684 346.359 230.9 343.861 232.053 336.766C233.206 329.67 225.491 300.98 224.287 291.695C223.083 282.41 222.468 247.551 221.672 242.994C220.613 236.964 216.278 235.075 212.566 235.745C210.445 236.14 188.635 242.258 171.609 245.35C154.809 248.398 142.786 248.414 141.027 248.731C137.484 249.373 134.816 254.798 135.431 258.547Z" fill="#00A09D"/>
<path d="M135.736 258.487C136.351 262.229 148.158 331.99 148.723 337.474C149.287 342.958 148.536 360.241 148.56 357.164C148.583 354.088 148.38 363.682 152.887 362.731C155.135 362.26 172.277 354.852 189.685 351.178C207.094 347.503 224.857 347.535 226.569 347.123C229.992 346.3 231.207 343.802 232.358 336.706C232.881 333.483 231.577 325.806 229.882 317.514C193.285 342.534 146.099 336.563 145.591 248.375C143.334 248.51 141.861 248.577 141.329 248.672C137.788 249.318 135.121 254.746 135.736 258.487Z" fill="#1D7E8E"/>
<path d="M114.542 295.239H138.794C143.101 295.239 147.232 297.53 150.278 301.606C153.323 305.684 155.034 311.214 155.034 316.98V403.691H318.545V316.98C318.545 311.214 320.256 305.684 323.302 301.606C326.348 297.53 330.479 295.239 334.786 295.239H359.038C363.345 295.24 367.475 297.53 370.521 301.608C373.566 305.685 375.277 311.214 375.278 316.98V403.691L371.546 466.646H102.034L98.3014 403.691V316.98C98.3014 311.214 100.012 305.684 103.058 301.606C106.104 297.53 110.235 295.239 114.542 295.239Z" fill="#66BBC4"/>
<path d="M116.594 485.652H357.382C361.146 485.652 364.758 483.65 367.42 480.086C370.083 476.521 371.578 471.687 371.578 466.646H102.409C102.409 471.684 103.904 476.516 106.564 480.08C109.223 483.643 112.831 485.647 116.594 485.652Z" fill="#66A5AF"/>
<path d="M342.842 194.266C342.416 155.194 313.816 104.83 255.105 104.83H217.005C159.627 104.83 131.134 154.758 131.134 194.266C186.959 174.738 170.47 224.773 236.8 224.773C303.13 224.773 292.924 180.459 342.842 194.266Z" fill="#8ED2CC"/>
<path d="M354.767 368.963C374.834 368.963 391.101 347.186 391.101 320.322C391.101 293.458 374.834 271.68 354.767 271.68C334.7 271.68 318.433 293.458 318.433 320.322C318.433 347.186 334.7 368.963 354.767 368.963Z" fill="#66BBC4"/>
<path d="M371.227 330.688C375.493 318.53 371.589 304.043 362.507 298.332C353.425 292.622 342.604 297.848 338.338 310.006C334.072 322.166 337.977 336.651 347.059 342.362C356.141 348.074 366.961 342.847 371.227 330.688Z" fill="#8ED2CC"/>
<path d="M118.833 368.963C138.9 368.963 155.167 347.186 155.167 320.322C155.167 293.458 138.9 271.68 118.833 271.68C98.766 271.68 82.4988 293.458 82.4988 320.322C82.4988 347.186 98.766 368.963 118.833 368.963Z" fill="#66BBC4"/>
<path d="M131.68 337.518C138.776 328.02 138.776 312.619 131.68 303.121C124.585 293.622 113.082 293.622 105.987 303.121C98.8909 312.619 98.8909 328.02 105.987 337.518C113.082 347.017 124.585 347.017 131.68 337.518Z" fill="#8ED2CC"/>
<path d="M230.636 164.799C230.636 166.482 231.008 168.126 231.706 169.526C232.403 170.925 233.396 172.015 234.556 172.66C235.717 173.304 236.995 173.473 238.227 173.146C239.46 172.818 240.592 172.008 241.48 170.818C242.369 169.63 242.975 168.114 243.22 166.464C243.466 164.814 243.339 163.104 242.859 161.55C242.378 159.995 241.564 158.666 240.519 157.732C239.474 156.798 238.246 156.298 236.99 156.298C235.305 156.298 233.69 157.194 232.498 158.788C231.307 160.382 230.637 162.545 230.636 164.799Z" fill="#66A5AF"/>
<path d="M274.642 356.198C272.188 357.766 269.666 359.137 267.089 360.304C255.68 365.662 243.853 369.259 231.834 371.026C219.291 372.871 205.991 372.511 194.885 364.497C176.456 351.198 178.725 327.782 178.725 303.918C178.725 302.147 179.25 300.45 180.185 299.198C181.12 297.946 182.388 297.242 183.711 297.242H266.305C270.742 297.242 275.681 296.414 280.082 297.242C282.569 297.71 284.672 297.963 285.787 301.74C286.571 304.385 286.082 310.269 286.438 313.286C287.747 324.519 289.631 338.789 283.352 347.86C280.907 351.419 277.89 354.06 274.642 356.198Z" fill="#0B2D4E"/>
<path d="M191.197 280.118C190.833 279.021 190.469 277.901 190.082 276.744C186.057 264.688 183.118 252.033 181.327 239.046C180.682 234.37 180.028 229.255 177.361 226.115C173.667 221.76 166.471 222.334 161.896 223.154C159.76 223.55 157.525 224.523 156.235 226.836C154.093 230.669 154.31 239.32 154.224 243.937C153.712 272.009 170.289 295.211 183.788 314.153C186.388 317.8 189.209 321.486 192.808 322.962C196.408 324.439 200.98 322.903 202.568 318.326C203.725 314.965 203.015 311.021 202.101 307.529C200.528 301.526 198.159 296.026 195.464 290.808C193.625 287.284 192.427 283.839 191.197 280.118Z" fill="#F8A17A"/>
<path d="M272.678 280.118C273.042 279.021 273.407 277.901 273.793 276.744C277.82 264.688 280.758 252.034 282.548 239.046C283.193 234.37 283.847 229.255 286.517 226.115C290.208 221.76 297.404 222.334 301.979 223.154C304.118 223.55 306.351 224.523 307.641 226.836C309.782 230.669 309.569 239.32 309.652 243.937C310.163 272.005 293.589 295.211 280.076 314.153C277.476 317.8 274.658 321.486 271.055 322.962C267.453 324.439 262.883 322.903 261.31 318.326C260.153 314.965 260.863 311.021 261.777 307.529C263.35 301.526 265.719 296.026 268.414 290.808C270.251 287.284 271.448 283.839 272.678 280.118Z" fill="#F8A17A"/>
<path d="M166.214 189.653C164.928 193.988 163.691 198.363 162.476 202.719C158.317 217.682 148.424 243.062 159.58 256.852C160.846 258.436 163.886 258.329 165.454 257.914C169.943 256.726 172.203 251.126 174.401 246.363C180.999 232.066 185.785 216.402 192.146 201.907C196.737 191.446 199.061 178.97 201.265 167.314C202.722 159.601 204.597 148.558 199.739 142.167C198.74 140.874 197.541 139.892 196.227 139.289C194.912 138.686 193.515 138.478 192.134 138.679C190.475 138.937 188.902 139.784 187.402 140.77C186.106 141.582 184.889 142.606 183.782 143.818C181.085 146.899 179.78 151.342 178.162 155.455C176.273 160.282 174.338 165.061 172.573 169.97C170.268 176.428 168.181 183.009 166.214 189.653Z" fill="#F8A17A"/>
<path d="M171.233 166.042C177.397 150.902 185.43 137.286 197.778 131.73C201.327 130.146 205.692 129.75 208.345 133.266C210.01 135.472 210.61 138.81 210.471 141.926C210.268 146.463 208.735 150.763 207.952 155.154C205.869 166.884 202.709 178.223 198.544 188.912C197.656 191.213 191.064 216.153 191.596 216.771C187.254 211.722 181.067 205.435 175.873 202.121C174.495 201.242 161.911 192.571 161.546 193.667C164.463 184.87 167.521 175.181 171.233 166.042Z" fill="#0077FF"/>
<path d="M299.09 189.653C300.373 193.988 301.61 198.363 302.825 202.719C306.984 217.682 316.877 243.062 305.721 256.852C304.455 258.436 301.415 258.329 299.847 257.914C295.358 256.726 293.098 251.126 290.9 246.363C284.302 232.066 279.516 216.402 273.155 201.907C268.562 191.446 266.24 178.97 264.037 167.314C262.576 159.601 260.7 148.558 265.56 142.167C266.559 140.874 267.758 139.89 269.073 139.288C270.387 138.685 271.785 138.477 273.167 138.679C274.823 138.937 276.397 139.784 277.899 140.77C279.195 141.582 280.409 142.606 281.516 143.818C284.214 146.899 285.518 151.342 287.136 155.455C289.025 160.282 290.959 165.061 292.726 169.97C295.033 176.428 297.12 183.009 299.09 189.653Z" fill="#F8A17A"/>
<path d="M294.015 166.042C287.848 150.902 279.819 137.286 267.467 131.73C263.918 130.146 259.556 129.75 256.9 133.266C255.238 135.472 254.635 138.81 254.773 141.926C254.977 146.463 256.513 150.763 257.293 155.154C259.377 166.883 262.538 178.222 266.701 188.912C267.589 191.213 274.181 216.153 273.652 216.771C277.991 211.722 284.178 205.435 289.371 202.121C290.75 201.242 303.334 192.571 303.698 193.667C300.782 184.87 297.736 175.181 294.015 166.042Z" fill="#0077FF"/>
<path d="M276.474 282.303C276.393 281.852 276.313 281.401 276.236 280.95C273.321 264.05 272.891 246.609 273.258 229.338C273.616 212.404 276.432 195.742 276.808 178.796C277.227 159.256 274.687 131.501 256.421 129.24C248.867 128.31 241.269 127.217 233.662 127.098V127.094C233.39 127.094 233.121 127.094 232.848 127.094C232.577 127.094 232.308 127.094 232.035 127.094C224.428 127.213 216.83 128.306 209.262 129.236C190.996 131.497 188.455 159.252 188.875 178.792C189.242 195.738 192.057 212.4 192.424 229.334C192.791 246.605 192.362 264.046 189.449 280.946L189.209 282.299C188.635 285.467 187.71 288.694 188.144 291.909C189.082 298.858 201.578 302.227 205.789 303.724C213.642 306.495 221.761 307.754 229.838 308.554L232.015 308.764V308.914L232.843 308.839L233.674 308.914V308.764L235.848 308.554C243.934 307.762 252.043 306.511 259.896 303.724C264.11 302.227 276.607 298.858 277.541 291.909C277.973 288.698 277.047 285.471 276.474 282.303Z" fill="#00C0FF"/>
<path d="M221.087 145.557C232.367 155.522 254.321 147.794 248.098 128.024C247.344 125.625 246.427 123.305 245.925 120.802C245.088 116.649 245.17 112.373 245.256 108.132C245.357 103.198 245.386 98.2576 245.59 93.332C241.449 92.2984 238.122 91.7832 233.742 91.9976C230.119 92.1752 226.499 91.724 222.878 91.9776C222.591 91.9576 222.306 92.0576 222.062 92.2624C221.973 92.3856 221.904 92.5304 221.858 92.6896C221.812 92.8488 221.79 93.0184 221.793 93.1888C221.308 99.8448 221.793 106.588 221.406 113.259C221.193 116.994 220.814 121.262 219.537 124.742C217.578 130.067 214.665 135.013 217.466 140.794C218.415 142.697 219.648 144.318 221.087 145.557Z" fill="#F8A17A"/>
<path d="M245.759 119.907C245.108 116.047 245.277 111.989 245.357 108.093C245.457 103.159 245.486 98.2176 245.687 93.292C241.565 92.2584 238.22 91.744 233.857 91.9576C230.234 92.136 226.614 91.6848 222.991 91.9576C222.704 91.9384 222.421 92.0384 222.178 92.2432C222.089 92.3656 222.02 92.5104 221.973 92.6696C221.927 92.8288 221.905 92.9984 221.908 93.1696C221.424 99.8248 221.908 106.568 221.521 113.24C221.412 115.158 221.209 117.063 220.912 118.946C221.48 119.535 222.059 120.102 222.654 120.62C227.126 124.536 233.156 125.838 238.507 124.041C241.073 123.191 243.522 121.795 245.759 119.907Z" fill="#E5785C"/>
<path d="M172.164 219.071L171.135 222.334H293.799L292.569 218.667L172.164 219.071Z" fill="#B8D1CE"/>
<path d="M285.337 326.102H179.556L171.978 220.675C171.944 220.232 171.978 219.785 172.08 219.361C172.183 218.938 172.349 218.547 172.571 218.215C172.793 217.882 173.063 217.616 173.366 217.432C173.669 217.248 173.997 217.151 174.33 217.147H290.563C290.897 217.149 291.227 217.243 291.531 217.426C291.836 217.609 292.108 217.875 292.332 218.207C292.554 218.54 292.723 218.931 292.826 219.356C292.929 219.782 292.964 220.23 292.929 220.675L285.337 326.102Z" fill="#B8D1CE"/>
<path d="M286.168 329.084H178.725L171.035 223.656C171.001 223.21 171.039 222.759 171.144 222.333C171.249 221.906 171.42 221.515 171.645 221.182C171.87 220.85 172.145 220.585 172.451 220.403C172.758 220.222 173.089 220.128 173.424 220.129H291.475C291.81 220.128 292.141 220.222 292.447 220.403C292.754 220.585 293.029 220.85 293.254 221.182C293.479 221.515 293.65 221.906 293.755 222.333C293.86 222.759 293.897 223.21 293.864 223.656L286.168 329.084Z" fill="white"/>
<path d="M286.101 329.084H178.725V335.482H286.101V329.084Z" fill="#B8D1CE"/>
<path d="M239.896 274.606C239.896 276.579 239.46 278.507 238.641 280.147C237.822 281.787 236.659 283.066 235.298 283.821C233.936 284.576 232.438 284.774 230.993 284.389C229.548 284.003 228.221 283.054 227.178 281.659C226.137 280.264 225.427 278.486 225.14 276.552C224.852 274.618 225 272.612 225.563 270.79C226.127 268.967 227.082 267.41 228.307 266.314C229.533 265.218 230.973 264.633 232.446 264.633C233.425 264.632 234.394 264.89 235.298 265.39C236.202 265.892 237.024 266.626 237.716 267.553C238.407 268.478 238.956 269.578 239.33 270.789C239.704 271.999 239.897 273.296 239.896 274.606Z" fill="#B8D1CE"/>
<path d="M226.593 352.175C222.698 354.048 218.788 355.858 214.875 357.529C210.871 359.235 187.913 364.177 192.469 376.019C193.356 378.343 195.529 379.103 197.449 379.582C208.496 382.314 219.741 381.083 230.896 379.29" fill="#F8A17A"/>
<path d="M209.969 381.602C205.237 383.431 200.125 384.346 195.674 385.712C193.669 386.326 191.661 386.943 189.629 387.378C186.4 388.068 183.123 388.302 179.869 388.531L172.753 389.038C171.464 389.129 170.112 389.204 168.935 388.483C167.53 387.62 166.628 385.783 165.8 384.033C164.159 380.565 162.212 377.302 160.84 373.612C159.952 371.197 159.009 368.837 159.994 366.184C160.52 364.911 161.207 363.771 162.026 362.814C163.014 361.502 164.116 360.353 165.309 359.394C169.278 356.365 173.492 357.695 177.704 358.843C182.161 360.054 186.618 361.441 191.173 361.801C196.077 362.197 200.966 361.373 205.834 360.696" fill="#D5EFF7"/>
<path d="M193.332 389.73L195.586 389.533C197.36 389.386 199.564 389.113 200.933 387.426C201.155 387.174 201.331 386.858 201.451 386.504C201.717 385.613 201.35 384.559 200.777 383.986C200.171 383.462 199.48 383.147 198.762 383.067C199.585 383.233 200.833 379.135 200.971 378.379C201.374 376.226 201.517 374 201.392 371.786C201.25 369.779 200.865 367.854 199.877 366.31C199.372 365.518 197.609 363.107 196.692 363.464C197.488 363.155 197.875 361.825 197.65 360.759C197.425 359.694 196.68 358.938 195.893 358.59C195.091 358.298 194.259 358.186 193.43 358.261C189.079 358.344 184.661 358.748 180.357 357.616C176.645 356.611 172.845 356.317 169.071 356.741C166.158 357.076 163.307 358.065 160.639 359.666C159.911 360.1 159.217 360.63 158.568 361.25C149.843 369.605 156.386 384.29 164.014 389.109C169.657 392.673 175.439 391.706 181.419 390.982C185.397 390.506 189.345 390.087 193.332 389.73Z" fill="#D74034"/>
<path d="M252.839 98.4392C249.42 103.962 244.628 107.602 239.885 110.939C238.72 111.759 237.537 112.574 236.256 112.974C232.328 114.202 228.362 111.351 225.085 108.223C220.554 103.862 216.463 98.7336 212.914 92.9672C209.35 87.1712 207.357 80.84 205.032 74.0216C202.708 67.2034 202.178 60.2546 202.666 52.7515C203.172 45.0465 199.954 38.161 201.41 30.3689C202.354 25.3786 204.561 20.981 207.656 17.9243C209.342 16.2733 211.297 15.0419 213.37 14.7568C218.008 14.0837 221.947 18.3203 226.537 18.5935C231.127 18.8667 235.614 16.6138 240.057 15.2755C243.94 14.0877 248.193 13.4422 252.047 15.2082C256.335 17.1879 258.399 21.5433 260.772 26.647C262.797 31.0023 265.85 34.253 268.287 38.1294C271.54 43.3003 272.587 49.877 271.54 56.608C270.628 62.4269 269.045 68.02 266.846 73.1861C264.963 77.5771 262.913 82.2056 260.697 86.3672C259.009 89.5344 257.148 91.8744 255.185 94.6384C254.345 95.7824 253.635 97.1488 252.839 98.4392Z" fill="#0B2D4E"/>
<path d="M257.039 72.0061C256.965 65.6711 256.267 59.6963 255.016 54.7312C249.612 33.3106 229.551 28.2703 217.605 43.8546C204.296 61.2365 209.741 102.296 224.011 116.554C225.936 118.446 228.154 119.734 230.501 120.322C232.848 120.908 235.264 120.778 237.569 119.943C251.446 114.76 257.272 91.756 257.039 72.0061Z" fill="#F8A17A"/>
<path d="M260.316 54.6599C254.238 33.2553 231.598 28.2426 218.096 43.8507C214.941 47.4974 211.589 53.2425 210.111 58.5006C208.543 64.1309 208.954 70.3551 209.386 76.318C209.723 71.3806 211.456 66.9421 213.873 63.2519C215.079 61.448 216.396 59.7819 217.809 58.271C218.318 57.7206 222.145 53.0643 221.779 52.4268C223.139 54.8025 224.491 57.1782 226.587 58.366C229.211 59.8547 231.938 60.7178 234.709 61.5335C239.61 62.9589 243.449 64.804 247.003 69.7137C250.29 74.2512 252.671 79.8934 254.25 85.8248C254.75 87.6976 255.601 90.576 257.432 89.7408C257.867 89.5424 261.635 85.7808 261.674 85.52C262.327 81.0456 262.629 76.4929 262.576 71.935C262.504 65.6118 261.727 59.6211 260.316 54.6599Z" fill="#E5785C"/>
<path d="M249.482 67.73C250.701 70.3987 251.449 73.4039 252.185 76.3735C253.351 81.0736 254.256 86.1256 255.767 90.6272C260.858 86.5096 264.214 76.809 266.533 69.7929C268.603 63.5687 269.168 58.6194 267.42 52.0903C266.293 47.8695 264.134 44.1199 261.57 40.9049C254.176 31.62 243.073 26.8925 232.369 27.8387C228.607 28.1674 225.543 29.9412 222.018 31.3112C218.765 32.5703 216.295 33.3939 213.914 36.9652C211.797 40.1328 210.436 44.0923 209.371 48.1111C207.632 54.656 206.65 61.4028 207.032 68.3556C207.278 72.7981 207.298 77.201 210.581 79.6202C210.523 76.9806 210.467 74.3343 210.409 71.6815C210.35 70.4155 210.385 69.1448 210.516 67.8884C210.682 66.7792 210.922 65.6925 211.234 64.6417C212.122 61.3989 212.917 58.7975 214.579 56.1249C216.753 52.6327 219.625 49.4691 220.234 44.9911C225.384 51.6903 231.473 55.8874 238.225 59.0074C242.517 60.9871 246.879 62.1235 249.426 67.6112L249.482 67.73Z" fill="#0B2D4E"/>
<path d="M257.137 72.5724C263.264 67.9794 265.246 79.3747 264.235 85.072C263.848 87.4432 263.11 89.6864 262.064 91.6688C260.618 94.2856 256.445 98.6568 254.022 95.8456C252.916 94.5672 252.789 92.3776 252.739 90.4216C252.602 85.1872 252.996 75.6845 257.137 72.5724Z" fill="#F8A17A"/>
<path d="M212.855 72.5724C206.727 67.9794 204.746 79.3747 205.757 85.072C206.143 87.4432 206.88 89.6864 207.925 91.6688C209.371 94.2856 213.545 98.6568 215.967 95.8456C217.073 94.5672 217.2 92.3776 217.25 90.4216C217.389 85.1872 217.008 75.6845 212.855 72.5724Z" fill="#F8A17A"/>
<path d="M204.122 54.0146C204.068 50.6688 202.409 47.8259 201.143 44.9435C199.195 40.3868 198.397 35.1099 198.869 29.8977C199.135 26.868 199.917 23.9606 201.155 21.3999C202.394 18.8393 204.055 16.6938 206.011 15.129C207.448 13.9762 209.044 13.2239 210.704 12.917C212.363 12.6102 214.052 12.7552 215.668 13.3433C218.688 14.4954 221.139 17.5878 224.07 18.6647C230.639 21.0682 237.38 13.9134 243.615 12.195C249.799 10.4806 256.412 13.2681 259.505 21.5947C260.727 24.8771 261.263 28.6821 262.859 31.6279C265.522 36.5455 270.644 38.1729 272.762 43.5934C276.222 52.4506 269.346 65.3939 265.847 72.2754" stroke="#0B2D4E" stroke-width="3" stroke-miterlimit="10"/>
<path d="M219.643 27.8665C224.739 28.3059 229.699 26.833 234.683 25.4908C237.198 24.8899 239.744 24.5432 242.299 24.4534C243.573 24.4059 244.854 24.4138 246.128 24.4811C247.418 24.5135 248.704 24.6843 249.973 24.9919C252.59 25.6574 254.931 27.5951 256.545 30.4322C257.34 31.9446 257.565 33.8096 257.651 35.5121C257.737 37.2146 257.705 38.9172 257.967 40.5129C258.231 42.1086 258.822 43.5379 259.58 44.8682C260.337 46.1986 261.183 47.525 261.765 49.093C262.307 50.6697 262.608 52.375 262.652 54.1095C262.697 55.8118 262.65 57.5159 262.513 59.2093C262.557 57.5165 262.529 55.8217 262.427 54.1333C262.329 52.4638 261.982 50.8376 261.407 49.3503C260.816 47.8893 259.967 46.6421 259.168 45.3038C258.37 43.9655 257.621 42.4372 257.343 40.691C257.018 38.9726 257.024 37.2266 256.933 35.5675C256.84 33.9086 256.613 32.2852 255.918 30.9984C255.569 30.341 255.158 29.7474 254.694 29.2325C254.234 28.693 253.739 28.2094 253.215 27.7873C252.158 26.9601 251.004 26.3778 249.801 26.065C248.578 25.7521 247.336 25.5721 246.09 25.5265C244.834 25.4446 243.575 25.4182 242.313 25.4473C239.793 25.525 237.279 25.8133 234.786 26.3104C232.301 26.837 229.79 27.5338 227.259 27.8942C224.728 28.2707 222.172 28.2614 219.643 27.8665Z" fill="#73B8D4"/>
<path d="M221.885 382.517C227.093 381.677 242.697 378.498 247.835 377.765C273.625 374.043 299.143 368.397 323.035 354.171C328.542 350.877 334.354 345.46 337.444 338.413C345.548 319.838 331.792 300.758 317.359 305.09C293.255 312.328 273.533 325.766 250.248 336.821C246.362 338.666 239.373 342.618 235.434 344.57C232.05 346.244 220.702 350.782 217.295 352.417" fill="#0B2D4E"/>
<path d="M231.565 450.433C232.825 455.536 234.126 460.616 235.513 465.617C236.93 470.733 247.826 497.174 238.347 499.589C236.483 500.064 234.756 498.298 233.337 496.619C225.176 486.954 219.161 474.716 213.52 462.228" fill="#F8A17A"/>
<path d="M224.701 485.026C226.496 490.966 229.016 496.734 230.896 502.103C231.745 504.522 232.591 506.946 233.559 509.286C235.094 512.999 236.915 516.484 238.734 519.976L242.697 527.554C243.416 528.932 244.176 530.362 245.294 531.118C246.628 532.041 248.216 531.866 249.707 531.664C252.665 531.268 255.696 531.312 258.621 530.508C260.535 529.986 262.443 529.53 263.353 526.945C263.765 525.646 264.004 524.26 264.061 522.85C264.223 521.057 264.223 519.244 264.061 517.45C263.418 511.574 260.141 508.062 256.962 504.439C253.608 500.602 250.159 496.873 247.225 492.43C244.073 487.643 241.606 482.136 239.098 476.771" fill="#D5EFF7"/>
<path d="M230.003 506.898L228.767 504.475C227.794 502.574 226.632 500.155 226.777 497.744C226.787 497.366 226.861 496.997 226.992 496.663C227.342 495.871 228.161 495.606 228.832 495.847C229.492 496.156 230.084 496.675 230.559 497.36C229.968 496.623 231.571 492.898 231.917 492.3C232.908 490.604 234.097 489.134 235.436 487.944C236.667 486.891 237.995 486.131 239.468 486.222C240.222 486.266 242.65 486.618 242.996 487.778C242.701 486.78 243.215 485.573 243.964 485.185C244.348 485.022 244.755 484.982 245.153 485.069C245.55 485.155 245.927 485.366 246.253 485.683C246.899 486.329 247.46 487.113 247.915 488.004C250.467 492.51 252.878 497.269 256.092 500.994C258.884 504.192 261.323 507.903 263.336 512.018C264.885 515.198 266.024 518.705 266.705 522.391C266.891 523.402 267.002 524.435 267.035 525.476C267.479 539.393 255.187 541.476 247.879 536.562C242.475 532.915 239.571 526.426 236.41 519.877C234.301 515.478 232.183 511.19 230.003 506.898Z" fill="#D74034"/>
<path d="M217.058 473.378C214.426 467.55 206.916 449.688 204.269 443.986C190.984 415.384 178.959 385.902 172.804 352.963C171.395 345.362 171.002 336.187 173.188 328.811C178.95 309.41 198.061 312.094 204.21 329.448C214.482 358.431 218.596 386.634 226.2 417.058C227.469 422.134 229.388 431.649 230.636 436.856C231.704 441.318 235.895 455.639 236.995 460.102" fill="#0B2D4E"/>
</svg>
