
                <svg xmlns="http://www.w3.org/2000/svg" class="active-svg-2 active-icon-2" width="514" height="514" viewBox="0 0 514 514">
                  <g id="Group_24" data-name="Group 24" transform="translate(-5474 -1454)">
                    <path id="Path_518" data-name="Path 518" d="M415.809,373.179H27.5a20,20,0,0,1-20-20V27.5a20,20,0,0,1,20-20H415.809a20,20,0,0,1,20,20V353.179A20,20,0,0,1,415.809,373.179Z" transform="translate(5475 1455)" fill="#e4f6ff" stroke="#000" stroke-width="2" class="ress-dev-1"></path>
                    <path id="Path_519" data-name="Path 519" d="M415.606,7.5H389.342a20.2,20.2,0,0,1,20.2,20.2v90.915H320.65a40.453,40.453,0,0,0-40.407,40.406V373.178H415.6a20.2,20.2,0,0,0,20.2-20.2V27.7a20.2,20.2,0,0,0-20.2-20.2Z" transform="translate(5475 1455)" fill="#d3effb" class="ress-dev-2"></path>
                    <path id="Path_520" data-name="Path 520" d="M435.809,68.11H7.5V27.5a20,20,0,0,1,20-20H415.809a20,20,0,0,1,20,20Z" transform="translate(5475 1455)" fill="#4f66d1" stroke="#000" stroke-width="2" class="ress-dev-3"></path>
                    <path id="Path_521" data-name="Path 521" d="M415.606,7.5H389.342a20.2,20.2,0,0,1,20.2,20.2V68.11h26.264V27.7A20.2,20.2,0,0,0,415.606,7.5Z" transform="translate(5475 1455)" fill="#314dca" class="ress-dev-4"></path>
                    <path id="Path_522" data-name="Path 522" d="M41.846,102.455H203.472v121.22H41.846Z" transform="translate(5475 1455)" fill="#a2f4c1" stroke="#000" stroke-width="2" class="ress-dev-5"></path>
                    <path id="Path_523" data-name="Path 523" d="M239.837,102.455H401.463v121.22H239.837Z" transform="translate(6116.301 1781.13) rotate(180)" fill="#f4dd45" stroke="#000" stroke-width="2" class="ress-dev-6"></path>
                    <path id="Path_524" data-name="Path 524" d="M401.463,223.675V118.618H320.65a40.453,40.453,0,0,0-40.407,40.406v64.65h121.22Z" transform="translate(5475 1455)" fill="#ecc32e" class="ress-dev-7"></path>
                    <path id="Path_525" data-name="Path 525" d="M484.5,504.5H320.447a20,20,0,0,1-20-20V158.821a20,20,0,0,1,20-20H484.5a20,20,0,0,1,20,20V484.5A20,20,0,0,1,484.5,504.5Z" transform="translate(5475 1455)" fill="#e4f6ff" stroke="#000" stroke-width="2" class="ress-dev-8"></path>
                    <path id="Path_526" data-name="Path 526" d="M332.772,233.776h139.4V355h-139.4Z" transform="translate(6279.947 2043.772) rotate(180)" fill="#a2f4c1" stroke="#000" stroke-width="2" class="ress-dev-9"></path>
                    <path id="Path_527" data-name="Path 527" d="M484.3,138.821H458.033a20.2,20.2,0,0,1,20.2,20.2V484.3a20.2,20.2,0,0,1-20.2,20.2H484.3a20.2,20.2,0,0,0,20.2-20.2V159.024a20.2,20.2,0,0,0-20.2-20.2Z" transform="translate(5475 1455)" fill="#d3effb" class="ress-dev-10"></path>
                    <path id="Path_528" data-name="Path 528" d="M504.5,199.431H300.447v-40.61a20,20,0,0,1,20-20H484.5a20,20,0,0,1,20,20Z" transform="translate(5475 1455)" fill="#4f66d1" stroke="#000" stroke-width="2" class="ress-dev-11"></path>
                    <path id="Path_529" data-name="Path 529" d="M484.3,138.821H458.033a20.2,20.2,0,0,1,20.2,20.2v40.407H504.5V159.024A20.2,20.2,0,0,0,484.3,138.821Z" transform="translate(5475 1455)" fill="#314dca" class="ress-dev-12"></path>
                    <path id="Path_542" data-name="Path 542" d="M10.1,0A10.1,10.1,0,1,1,0,10.1,10.1,10.1,0,0,1,10.1,0Z" transform="translate(5513.815 1482.703)" stroke="#000" stroke-width="2" class="ress-dev-13"></path>
                    <path id="Path_540" data-name="Path 540" d="M10.1,0A10.1,10.1,0,1,1,0,10.1,10.1,10.1,0,0,1,10.1,0Z" transform="translate(5555.231 1482.703)" stroke="#000" stroke-width="2" class="ress-dev-14"></path>
                    <path id="Path_541" data-name="Path 541" d="M10.1,0A10.1,10.1,0,1,1,0,10.1,10.1,10.1,0,0,1,10.1,0Z" transform="translate(5596.648 1482.703)" stroke="#000" stroke-width="2" class="ress-dev-15"></path>
                    <path id="Path_530" data-name="Path 530" d="M41.846,231.175H203.472a7.5,7.5,0,0,0,7.5-7.5V102.455a7.5,7.5,0,0,0-7.5-7.5H41.846a7.5,7.5,0,0,0-7.5,7.5v121.22a7.5,7.5,0,0,0,7.5,7.5Zm7.5-121.22H195.972v106.22H49.346Z" transform="translate(5475 1455)" class="ress-dev-16"></path>
                    <path id="Path_531" data-name="Path 531" d="M41.846,263.5H203.472a7.5,7.5,0,0,0,0-15H41.846a7.5,7.5,0,0,0,0,15Z" transform="translate(5475 1455)" stroke="#000" stroke-width="2" class="ress-dev-17"></path>
                    <path id="Path_532" data-name="Path 532" d="M41.846,294.815H173.167a7.5,7.5,0,0,0,0-15H41.846a7.5,7.5,0,0,0,0,15Z" transform="translate(5475 1455)" stroke="#000" stroke-width="2" class="ress-dev-18"></path>
                    <path id="Path_533" data-name="Path 533" d="M41.846,326.13h80.813a7.5,7.5,0,0,0,0-15H41.846a7.5,7.5,0,0,0,0,15Z" transform="translate(5475 1455)" stroke="#000" stroke-width="2" class="ress-dev-19"></path>
                    <path id="Path_534" data-name="Path 534" d="M504.5,259.833a7.5,7.5,0,0,0,7.5-7.5V158.821a27.531,27.531,0,0,0-27.5-27.5H443.31V27.5A27.531,27.531,0,0,0,415.81,0H27.5A27.531,27.531,0,0,0,0,27.5v84.958a7.5,7.5,0,0,0,15,0V75.61H428.31v55.711H408.96V102.46a7.5,7.5,0,0,0-7.5-7.5H239.84a7.5,7.5,0,0,0-7.5,7.5V223.67a7.5,7.5,0,0,0,7.5,7.5h53.107V248.5h-53.11a7.5,7.5,0,1,0,0,15h53.11v16.315h-53.11a7.5,7.5,0,1,0,0,15h53.11V311.13h-53.11a7.5,7.5,0,0,0,0,15h53.11v39.55H27.5A12.514,12.514,0,0,1,15,353.18V147.5a7.5,7.5,0,0,0-15,0V353.18a27.531,27.531,0,0,0,27.5,27.5H292.947V484.5a27.531,27.531,0,0,0,27.5,27.5H484.5A27.531,27.531,0,0,0,512,484.5V287.438a7.5,7.5,0,0,0-15,0V484.5A12.514,12.514,0,0,1,484.5,497H320.447a12.514,12.514,0,0,1-12.5-12.5V206.931H497v45.4A7.5,7.5,0,0,0,504.5,259.833ZM15,60.61V27.5A12.514,12.514,0,0,1,27.5,15H415.81a12.514,12.514,0,0,1,12.5,12.5V60.61ZM247.34,216.17V109.96H393.96v21.361H320.447a27.531,27.531,0,0,0-27.5,27.5V216.17Zm60.607-24.239V158.822a12.514,12.514,0,0,1,12.5-12.5H484.5a12.514,12.514,0,0,1,12.5,12.5v33.109Z" transform="translate(5475 1455)" stroke="#000" stroke-width="2" class="ress-dev-20"></path>
                    <path id="Path_535" data-name="Path 535" d="M479.675,233.776a7.5,7.5,0,0,0-7.5-7.5h-139.4a7.5,7.5,0,0,0-7.5,7.5V355a7.5,7.5,0,0,0,7.5,7.5h139.4a7.5,7.5,0,0,0,7.5-7.5V233.776Zm-15,113.72h-124.4V241.276h124.4V347.5Z" transform="translate(5475 1455)" class="ress-dev-21"></path>
                    <path id="Path_536" data-name="Path 536" d="M479.675,387.321a7.5,7.5,0,0,0-7.5-7.5h-139.4a7.5,7.5,0,0,0,0,15h139.4a7.5,7.5,0,0,0,7.5-7.5Z" transform="translate(5475 1455)" stroke="#000" stroke-width="2" class="ress-dev-22"></path>
                    <path id="Path_537" data-name="Path 537" d="M449.37,418.636a7.5,7.5,0,0,0-7.5-7.5h-109.1a7.5,7.5,0,0,0,0,15h109.1A7.5,7.5,0,0,0,449.37,418.636Z" transform="translate(5475 1455)" stroke="#000" stroke-width="2" class="ress-dev-23"></path>
                    <path id="Path_538" data-name="Path 538" d="M332.772,442.451a7.5,7.5,0,0,0,0,15h58.589a7.5,7.5,0,0,0,0-15Z" transform="translate(5475 1455)" stroke="#000" stroke-width="2" class="ress-dev-24"></path>
                    <path id="Path_539" data-name="Path 539" d="M352.976,161.626h-20.2a7.5,7.5,0,0,0,0,15h20.2a7.5,7.5,0,0,0,0-15Z" transform="translate(5475 1455)" stroke="#000" stroke-width="2" class="ress-dev-25"></path>
                  </g>
                </svg>
   
           
              