<svg width="685" height="710" viewBox="0 0 685 710" fill="none" xmlns="http://www.w3.org/2000/svg">
<g clip-path="url(#clip0)">
<path d="M342.855 698.305C509.033 698.305 643.746 541.984 643.746 349.152C643.746 156.321 509.033 0 342.855 0C176.678 0 41.9644 156.321 41.9644 349.152C41.9644 541.984 176.678 698.305 342.855 698.305Z" fill="#DFF6FF"/>
<path d="M562.998 271.082C557.424 271.043 552.015 270.211 548.198 263.871C540.708 251.419 529.273 240.243 516.448 252.904C509.052 260.204 514.614 275.225 508.25 282.451C502.62 288.84 495.455 287.781 492.584 298.388C488.349 313.988 501.695 327.658 505.981 341.149C509.577 352.468 501.49 356.784 497.856 365.604C495.054 372.409 496.496 379.69 499.562 386.193C504.945 397.66 516.879 406.891 514.115 421.734C511.808 434.107 509.662 445.169 519.084 454.557C525.541 460.992 537.527 466.861 536.614 478.774C536.29 482.991 533.773 486.584 533.086 490.742C531.995 497.319 535.646 503.724 539.911 508.237C549.614 518.512 558.136 528.198 565.404 541.125C568.509 546.644 580.942 559.116 575.973 566.669C585.006 552.944 594.552 539.631 602.758 525.204C609.51 513.325 619.682 496.003 612.756 481.363C610.623 476.819 606.597 473.444 605.505 468.401C603.526 459.319 611.216 450.895 614.074 443.159C618.561 431.028 615.268 416.928 607.36 407.831C603.62 403.525 599.559 398.784 599.013 392.701C598.412 386.059 601.999 379.868 603.628 373.741C605.097 368.022 606.096 362.156 606.614 356.22C607.002 352.077 607.151 347.836 606.311 343.787C604.712 336.081 598.732 331.795 594.309 326.326C583.77 313.315 589.31 298.006 584.704 282.881C580.566 269.311 571.588 271.137 562.998 271.082Z" fill="#1D7E8E"/>
<path d="M577.099 582.14C581.01 530.098 577.419 477.646 569.132 426.396C561.228 377.507 550.855 328.445 535.13 282.099C529.965 266.766 524.068 251.778 517.467 237.204" stroke="#00A09D" stroke-width="5" stroke-miterlimit="10"/>
<path d="M482.066 306.989C504.169 316.049 525.164 328.4 544.526 343.733C549.426 347.623 552.16 348.811 556.246 353.81" stroke="#00A09D" stroke-width="5" stroke-miterlimit="10"/>
<path d="M566.718 409.563C545.448 393.636 521.586 382.948 496.611 378.16" stroke="#00A09D" stroke-width="5" stroke-miterlimit="10"/>
<path d="M575.094 476.691C555.256 456.794 531.464 442.938 505.862 436.369" stroke="#00A09D" stroke-width="5" stroke-miterlimit="10"/>
<path d="M555.15 352.092C556.709 324.485 562.582 297.438 572.484 272.27" stroke="#00A09D" stroke-width="5" stroke-miterlimit="10"/>
<path d="M566.444 407.292C576.512 382.344 590.883 360.058 608.67 341.813" stroke="#00A09D" stroke-width="5" stroke-miterlimit="10"/>
<path d="M576.399 478.591C577.788 470.892 580.206 463.493 583.565 456.661C587.468 448.742 592.577 441.699 597.776 434.844C601.516 429.895 605.323 425.023 609.199 420.229" stroke="#00A09D" stroke-width="5" stroke-miterlimit="10"/>
<path d="M631.42 365.931C635.468 366.797 639.49 367.064 643.013 363.075C649.935 355.25 659.562 348.979 667.354 360.224C671.846 366.708 666.024 376.71 669.777 382.991C673.1 388.529 678.418 388.93 679.241 397.067C680.453 409.064 669.137 416.864 664.42 425.936C660.462 433.568 665.815 437.997 667.406 444.981C668.625 450.365 666.715 455.414 663.725 459.64C658.453 467.094 648.694 471.875 648.929 483.085C649.125 492.444 649.355 500.799 641.409 506.094C635.958 509.727 626.566 512.034 625.807 520.848C625.538 523.956 626.933 526.97 626.937 530.093C626.937 535.043 623.525 539.096 619.883 541.685C611.621 547.579 604.285 553.236 597.469 561.447C594.56 564.951 584.051 572.004 586.755 578.275C581.842 566.891 576.519 555.681 572.254 543.897C568.773 534.206 563.463 519.982 570.232 510.494C572.335 507.525 575.644 505.728 577.056 502.254C579.577 495.983 575.005 488.643 573.849 482.575C572.04 473.058 576.114 463.362 582.934 458.027C586.162 455.503 589.673 452.721 590.794 448.396C592.023 443.674 590.159 438.606 589.707 433.899C589.319 429.507 589.29 425.083 589.621 420.685C589.835 417.616 590.231 414.518 591.327 411.716C593.405 406.381 598.254 404.238 602.118 400.981C611.314 393.231 609.122 381.239 614.266 371.009C618.889 361.823 625.184 364.594 631.42 365.931Z" fill="#00A09D"/>
<path d="M584.077 589.302C587.446 550.925 596.309 513.454 608.431 477.606C619.994 443.412 633.369 409.494 650.306 378.403C655.882 368.109 661.946 358.184 668.472 348.672" stroke="#1D7E8E" stroke-width="5" stroke-miterlimit="10"/>
<path d="M685.848 404.975C668.734 407.997 652.032 413.585 636.159 421.6C632.137 423.629 630.013 424.075 626.451 427.044" stroke="#1D7E8E" stroke-width="5" stroke-miterlimit="10"/>
<path d="M612.227 465.782C629.554 457.649 648.136 453.729 666.821 454.265" stroke="#1D7E8E" stroke-width="5" stroke-miterlimit="10"/>
<path d="M598.122 513.132C614.882 501.887 633.79 495.657 653.143 495.003" stroke="#1D7E8E" stroke-width="5" stroke-miterlimit="10"/>
<path d="M627.454 425.955C629.62 405.674 628.585 385.104 624.4 365.252" stroke="#1D7E8E" stroke-width="5" stroke-miterlimit="10"/>
<path d="M612.675 464.179C608.347 444.466 600.581 425.992 589.856 409.9" stroke="#1D7E8E" stroke-width="5" stroke-miterlimit="10"/>
<path d="M596.945 514.305C596.854 508.499 595.982 502.744 594.36 497.25C592.475 490.87 589.609 484.946 586.657 479.14C584.53 474.957 582.349 470.812 580.114 466.708" stroke="#1D7E8E" stroke-width="5" stroke-miterlimit="10"/>
<path d="M544.752 576.013H627.432L612.926 672.024H559.258L544.752 576.013Z" fill="#9D786A"/>
<path d="M534.626 576.008H637.553V549.059H534.626V576.008Z" fill="#94624F"/>
<path opacity="0.1" d="M625.509 588.742H546.675L544.752 576.013H627.432L625.509 588.742Z" fill="#231F20"/>
<path d="M135.679 613.796H21.0436V625.927H135.679V613.796Z" fill="#94624F"/>
<path d="M128.663 419.269H29.8129V438.947H128.663V419.269Z" fill="#94624F"/>
<path d="M157.465 405.851H1.00586V419.269H157.465V405.851Z" fill="#9D786A"/>
<path d="M153.038 672.38H140.511L116.234 438.942H128.756L153.038 672.38Z" fill="#94624F"/>
<path d="M5.43738 672.38H17.9599L42.2416 438.942H29.7148L5.43738 672.38Z" fill="#94624F"/>
<path d="M83.6692 419.269H74.8062V672.38H83.6692V419.269Z" fill="#9D786A"/>
<path d="M87.0771 323.604L87.1489 316.73" stroke="#151614" stroke-miterlimit="10"/>
<path d="M98.4523 324.218H75.8512V399.12H98.4523V324.218Z" fill="#D74034"/>
<path d="M98.4523 324.223H75.8512L77.7108 321.763H96.5202L98.4523 324.223Z" fill="#EF5132"/>
<path d="M116.242 336.126L116.314 329.251" stroke="#151614" stroke-miterlimit="10"/>
<path d="M127.613 336.74H105.012V399.12H127.613V336.74Z" fill="#D74034"/>
<path d="M127.618 336.74H105.012L106.872 334.28H125.681L127.618 336.74Z" fill="#EF5132"/>
<path d="M68.2677 399.125H134.745V403.218C134.745 403.852 134.528 404.46 134.141 404.909C133.755 405.357 133.231 405.609 132.685 405.609H70.3277C69.7814 405.609 69.2574 405.357 68.8711 404.909C68.4847 404.46 68.2677 403.852 68.2677 403.218V399.125Z" fill="#0B2D4E"/>
<path d="M22.7028 334.522H65.5721V392.924C65.5721 396.337 64.4037 399.61 62.3241 402.023C60.2444 404.436 57.4237 405.792 54.4826 405.792H33.7923C30.8512 405.792 28.0305 404.436 25.9508 402.023C23.8712 399.61 22.7028 396.337 22.7028 392.924V334.522Z" fill="#00A09D"/>
<path d="M68.5662 350.637C58.2872 350.637 49.953 360.447 49.953 372.553C49.953 384.659 58.2872 394.453 68.5662 394.453C78.8453 394.453 87.1837 384.654 87.1837 372.553C87.1837 360.452 78.8496 350.637 68.5662 350.637ZM68.5662 386.653C66.1558 386.693 63.7894 385.901 61.7682 384.376C59.7471 382.851 58.1624 380.663 57.2158 378.091C56.2692 375.518 56.0035 372.677 56.4524 369.928C56.9014 367.18 58.0447 364.648 59.7369 362.656C61.4292 360.664 63.5939 359.3 65.9557 358.74C68.3175 358.179 70.7696 358.446 73.0002 359.507C75.2308 360.568 77.1391 362.375 78.4822 364.698C79.8253 367.021 80.5426 369.755 80.5428 372.553C80.5655 376.265 79.3166 379.836 77.0707 382.481C74.8247 385.125 71.7657 386.626 68.5662 386.653Z" fill="#00A09D"/>
<path opacity="0.2" d="M29.1176 378.729C28.5029 378.727 27.9141 378.442 27.4794 377.938C27.0448 377.433 26.7996 376.75 26.7974 376.037V341.362C26.7996 340.649 27.0449 339.967 27.4797 339.463C27.9145 338.959 28.5033 338.676 29.1176 338.675C29.7312 338.677 30.3189 338.961 30.7528 339.465C31.1866 339.968 31.4314 340.65 31.4336 341.362V376.037C31.4314 376.749 31.1868 377.432 30.7531 377.936C30.3193 378.44 29.7316 378.725 29.1176 378.729Z" fill="white"/>
<path d="M55.6726 334.522V393.176C55.6732 394.831 55.3928 396.469 54.8475 397.997C54.3022 399.526 53.5026 400.915 52.4945 402.084C51.4865 403.254 50.2896 404.182 48.9724 404.815C47.6552 405.448 46.2434 405.773 44.8177 405.772H54.7172C56.1431 405.773 57.555 405.448 58.8725 404.815C60.19 404.182 61.3871 403.254 62.3955 402.085C63.4039 400.915 64.2039 399.526 64.7497 397.998C65.2954 396.469 65.5763 394.831 65.5763 393.176V334.522H55.6726Z" fill="#1D7E8E"/>
<path d="M262.969 583.323H417.863C460.83 583.323 495.489 542.521 494.862 492.662L494.956 242.832C494.66 219.36 486.417 196.965 472.008 180.488C457.6 164.011 438.182 154.774 417.952 154.774H266.112C245.884 154.777 226.469 164.015 212.063 180.492C197.657 196.969 189.416 219.362 189.121 242.832L185.982 492.662C185.342 542.521 220.001 583.323 262.969 583.323Z" fill="#66BBC4"/>
<path d="M262.969 584.57H417.863C460.83 584.57 495.489 543.763 494.862 493.909C494.862 493.909 495.438 351.449 494.926 318.338C425.101 430.271 258.209 431.4 188.157 319.595C187.552 363.075 185.969 493.909 185.969 493.909C185.342 543.763 220.001 584.57 262.969 584.57Z" fill="#66A5AF"/>
<path d="M226.791 503.367L456.194 503.367C457.961 503.367 459.393 501.705 459.393 499.655V437.735C459.393 435.685 457.961 434.023 456.194 434.023H226.791C225.025 434.023 223.593 435.685 223.593 437.735V499.655C223.593 501.705 225.025 503.367 226.791 503.367Z" fill="#66BBC4"/>
<path d="M231.935 434.018H451.592C453.734 434.019 455.787 435.007 457.301 436.765C458.815 438.523 459.666 440.906 459.666 443.392H223.861C223.861 440.906 224.712 438.523 226.226 436.765C227.74 435.007 229.794 434.019 231.935 434.018Z" fill="#8ED2CC"/>
<path d="M231.667 503.362H451.323C453.464 503.361 455.517 502.373 457.031 500.617C458.545 498.86 459.396 496.478 459.397 493.993H223.593C223.594 496.478 224.445 498.86 225.959 500.617C227.473 502.373 229.526 503.361 231.667 503.362Z" fill="#66A5AF"/>
<path d="M172.449 627.055H513.228V592.073H172.449V627.055Z" fill="#94624F"/>
<path d="M475.741 635.157C475.742 639.599 476.878 643.941 479.005 647.634C481.133 651.326 484.156 654.204 487.693 655.904C491.229 657.603 495.121 658.047 498.875 657.18C502.63 656.312 506.078 654.173 508.784 651.032C511.491 647.89 513.334 643.888 514.08 639.532C514.827 635.175 514.443 630.66 512.978 626.556C511.513 622.452 509.032 618.945 505.849 616.477C502.667 614.009 498.925 612.692 495.097 612.692C492.554 612.692 490.037 613.273 487.689 614.402C485.34 615.531 483.206 617.186 481.409 619.272C479.611 621.358 478.186 623.835 477.213 626.56C476.241 629.286 475.741 632.207 475.741 635.157Z" fill="#94624F"/>
<path d="M506.058 663.001C508.611 655.989 505.783 647.903 499.74 644.939C493.697 641.976 486.728 645.258 484.175 652.27C481.621 659.282 484.449 667.369 490.492 670.332C496.535 673.296 503.504 670.013 506.058 663.001Z" fill="#94624F"/>
<path d="M194.075 657.64C204.479 654.79 210.922 642.694 208.467 630.621C206.011 618.549 195.587 611.072 185.183 613.921C174.779 616.771 168.336 628.867 170.791 640.94C173.247 653.012 183.671 660.489 194.075 657.64Z" fill="#94624F"/>
<path d="M177.772 658.22C177.772 660.948 178.469 663.614 179.775 665.882C181.081 668.149 182.937 669.917 185.108 670.96C187.28 672.004 189.669 672.276 191.974 671.744C194.28 671.211 196.397 669.898 198.058 667.969C199.72 666.04 200.852 663.583 201.31 660.908C201.768 658.232 201.532 655.46 200.632 652.94C199.732 650.421 198.208 648.268 196.253 646.753C194.299 645.239 192.001 644.431 189.65 644.432C188.09 644.432 186.545 644.788 185.104 645.481C183.662 646.175 182.353 647.19 181.249 648.471C180.146 649.751 179.271 651.271 178.675 652.944C178.078 654.617 177.771 656.41 177.772 658.22Z" fill="#94624F"/>
<path d="M195.306 323.184C196.193 327.861 213.22 415.062 214.034 421.917C214.849 428.772 213.761 450.375 213.8 446.53C213.838 442.684 213.54 454.676 220.035 453.488C223.281 452.899 248.002 443.639 273.103 439.046C298.267 434.439 323.824 434.493 326.294 433.978C331.229 432.949 332.982 429.826 334.645 420.957C336.308 412.088 325.181 376.225 323.445 364.619C321.709 353.013 320.822 309.439 319.674 303.743C318.147 296.205 311.895 293.844 306.542 294.681C303.484 295.175 272.032 302.822 247.478 306.688C223.251 310.498 205.913 310.518 203.376 310.914C198.266 311.716 194.419 318.497 195.306 323.184Z" fill="#00A09D"/>
<path d="M195.745 323.109C196.632 327.786 213.659 414.988 214.474 421.843C215.288 428.697 214.205 450.301 214.239 446.455C214.273 442.61 213.979 454.602 220.479 453.414C223.721 452.825 248.441 443.565 273.546 438.972C298.651 434.379 324.268 434.419 326.737 433.904C331.672 432.875 333.425 429.752 335.084 420.882C335.839 416.854 333.958 407.257 331.514 396.893C278.737 428.168 210.69 420.704 209.957 310.469C206.702 310.637 204.578 310.721 203.811 310.84C198.705 311.647 194.858 318.432 195.745 323.109Z" fill="#1D7E8E"/>
<path d="M165.181 369.049H200.155C206.367 369.049 212.324 371.912 216.716 377.008C221.108 382.105 223.576 389.017 223.576 396.225V504.614H459.376V396.225C459.376 389.017 461.843 382.105 466.235 377.008C470.628 371.912 476.585 369.049 482.796 369.049H517.77C523.981 369.05 529.938 371.913 534.33 377.01C538.721 382.106 541.189 389.018 541.19 396.225V504.614L535.808 583.308H147.144L141.761 504.614V396.225C141.761 389.017 144.228 382.105 148.621 377.008C153.013 371.912 158.97 369.049 165.181 369.049Z" fill="#66BBC4"/>
<path d="M168.141 607.065H515.382C520.811 607.065 526.019 604.562 529.858 600.107C533.698 595.651 535.855 589.609 535.855 583.308H147.685C147.685 589.605 149.84 595.645 153.676 600.1C157.511 604.554 162.714 607.059 168.141 607.065Z" fill="#66A5AF"/>
<path d="M494.414 242.832C493.8 193.992 452.556 131.037 367.888 131.037H312.944C230.199 131.037 189.109 193.448 189.109 242.832C269.614 218.422 245.835 280.966 341.491 280.966C437.146 280.966 422.427 225.574 494.414 242.832Z" fill="#8ED2CC"/>
<path d="M511.611 461.204C540.55 461.204 564.009 433.982 564.009 400.402C564.009 366.822 540.55 339.6 511.611 339.6C482.673 339.6 459.214 366.822 459.214 400.402C459.214 433.982 482.673 461.204 511.611 461.204Z" fill="#66BBC4"/>
<path d="M535.349 413.36C541.501 398.162 535.871 380.054 522.774 372.915C509.676 365.777 494.071 372.31 487.919 387.508C481.767 402.707 487.398 420.814 500.495 427.953C513.593 435.092 529.197 428.559 535.349 413.36Z" fill="#8ED2CC"/>
<path d="M171.37 461.204C200.308 461.204 223.767 433.982 223.767 400.402C223.767 366.822 200.308 339.6 171.37 339.6C142.431 339.6 118.972 366.822 118.972 400.402C118.972 433.982 142.431 461.204 171.37 461.204Z" fill="#66BBC4"/>
<path d="M189.897 421.898C200.129 410.025 200.129 390.774 189.897 378.901C179.665 367.028 163.076 367.028 152.844 378.901C142.611 390.774 142.611 410.025 152.844 421.898C163.076 433.771 179.665 433.771 189.897 421.898Z" fill="#8ED2CC"/>
<path d="M332.602 205.999C332.601 208.102 333.138 210.158 334.144 211.907C335.15 213.656 336.581 215.019 338.255 215.825C339.929 216.63 341.771 216.841 343.548 216.432C345.326 216.022 346.959 215.01 348.24 213.523C349.522 212.037 350.395 210.142 350.749 208.08C351.103 206.018 350.921 203.88 350.228 201.937C349.535 199.994 348.361 198.333 346.854 197.165C345.347 195.997 343.576 195.373 341.764 195.373C339.335 195.373 337.005 196.492 335.287 198.485C333.569 200.478 332.603 203.181 332.602 205.999Z" fill="#66A5AF"/>
<path d="M396.063 445.248C392.523 447.207 388.886 448.921 385.17 450.38C368.718 457.078 351.661 461.574 334.329 463.783C316.241 466.089 297.06 465.639 281.045 455.621C254.468 438.997 257.74 409.727 257.74 379.897C257.74 377.684 258.497 375.562 259.846 373.997C261.194 372.432 263.023 371.553 264.931 371.553H384.04C390.438 371.553 397.561 370.518 403.907 371.553C407.494 372.137 410.527 372.454 412.135 377.175C413.265 380.481 412.561 387.836 413.073 391.607C414.962 405.649 417.679 423.486 408.624 434.825C405.097 439.274 400.747 442.575 396.063 445.248Z" fill="#0B2D4E"/>
<path d="M275.726 350.147C275.201 348.776 274.677 347.376 274.118 345.93C268.314 330.86 264.076 315.041 261.493 298.808C260.563 292.963 259.62 286.569 255.773 282.644C250.446 277.2 240.069 277.917 233.471 278.942C230.391 279.437 227.167 280.654 225.307 283.545C222.219 288.336 222.531 299.15 222.407 304.921C221.669 340.011 245.575 369.014 265.042 392.691C268.791 397.25 272.86 401.857 278.05 403.703C283.241 405.549 289.835 403.629 292.125 397.908C293.793 393.706 292.769 388.776 291.451 384.411C289.182 376.908 285.766 370.033 281.88 363.51C279.227 359.105 277.5 354.799 275.726 350.147Z" fill="#F8A17A"/>
<path d="M393.231 350.147C393.756 348.776 394.281 347.376 394.839 345.93C400.645 330.86 404.883 315.042 407.464 298.808C408.394 292.963 409.337 286.569 413.188 282.644C418.511 277.2 428.888 277.917 435.486 278.942C438.57 279.437 441.79 280.654 443.65 283.545C446.738 288.336 446.431 299.15 446.55 304.921C447.288 340.006 423.386 369.014 403.899 392.691C400.149 397.25 396.085 401.857 390.89 403.703C385.695 405.549 379.105 403.629 376.836 397.908C375.168 393.706 376.192 388.776 377.51 384.411C379.779 376.908 383.195 370.033 387.081 363.51C389.73 359.105 391.457 354.799 393.231 350.147Z" fill="#F8A17A"/>
<path d="M239.698 237.066C237.843 242.485 236.06 247.954 234.307 253.399C228.31 272.102 214.043 303.827 230.131 321.065C231.957 323.045 236.341 322.911 238.602 322.392C245.076 320.907 248.335 313.908 251.504 307.954C261.02 290.083 267.921 270.503 277.095 252.384C283.715 239.308 287.067 223.713 290.245 209.142C292.347 199.501 295.051 185.697 288.044 177.709C286.604 176.093 284.875 174.865 282.98 174.111C281.084 173.357 279.069 173.097 277.078 173.349C274.685 173.671 272.416 174.73 270.254 175.962C268.384 176.977 266.63 178.257 265.033 179.773C261.143 183.624 259.262 189.177 256.929 194.319C254.204 200.352 251.414 206.326 248.868 212.463C245.545 220.535 242.534 228.761 239.698 237.066Z" fill="#F8A17A"/>
<path d="M246.936 207.553C255.825 188.627 267.409 171.607 285.216 164.663C290.334 162.683 296.629 162.188 300.455 166.583C302.857 169.34 303.722 173.512 303.522 177.407C303.228 183.079 301.018 188.454 299.888 193.943C296.885 208.605 292.327 222.779 286.321 236.14C285.041 239.016 275.534 270.191 276.302 270.964C270.04 264.653 261.118 256.794 253.628 252.651C251.64 251.552 233.492 240.714 232.967 242.084C237.173 231.087 241.583 218.976 246.936 207.553Z" fill="#0077FF"/>
<path d="M431.319 237.066C433.17 242.485 434.953 247.954 436.706 253.399C442.703 272.102 456.97 303.827 440.882 321.065C439.056 323.045 434.672 322.911 432.411 322.392C425.937 320.907 422.678 313.908 419.509 307.954C409.994 290.083 403.092 270.503 393.918 252.384C387.294 239.308 383.946 223.713 380.769 209.142C378.662 199.501 375.957 185.697 382.965 177.709C384.406 176.092 386.135 174.863 388.031 174.11C389.927 173.356 391.943 173.096 393.935 173.349C396.324 173.671 398.593 174.73 400.759 175.962C402.628 176.977 404.38 178.257 405.976 179.773C409.866 183.624 411.747 189.177 414.08 194.319C416.805 200.352 419.594 206.326 422.141 212.463C425.468 220.535 428.479 228.761 431.319 237.066Z" fill="#F8A17A"/>
<path d="M424 207.553C415.107 188.627 403.528 171.607 385.716 164.663C380.598 162.683 374.307 162.188 370.477 166.583C368.08 169.34 367.21 173.512 367.41 177.407C367.704 183.079 369.918 188.454 371.044 193.943C374.049 208.604 378.607 222.778 384.611 236.14C385.891 239.016 395.398 270.191 394.635 270.964C400.892 264.653 409.814 256.794 417.304 252.651C419.292 251.552 437.44 240.714 437.965 242.084C433.759 231.087 429.366 218.976 424 207.553Z" fill="#0077FF"/>
<path d="M398.704 352.879C398.588 352.315 398.473 351.751 398.362 351.187C394.157 330.063 393.538 308.261 394.067 286.673C394.583 265.505 398.644 244.678 399.186 223.495C399.791 199.07 396.127 164.376 369.786 161.55C358.892 160.387 347.935 159.021 336.965 158.872V158.867C336.573 158.867 336.185 158.867 335.792 158.867C335.4 158.867 335.012 158.867 334.619 158.867C323.649 159.016 312.692 160.382 301.778 161.545C275.436 164.371 271.772 199.065 272.378 223.49C272.907 244.673 276.967 265.5 277.496 286.668C278.025 308.256 277.406 330.058 273.205 351.182L272.86 352.874C272.032 356.834 270.697 360.867 271.324 364.886C272.676 373.572 290.697 377.784 296.77 379.655C308.094 383.119 319.802 384.693 331.45 385.693L334.59 385.955V386.143L335.784 386.049L336.982 386.143V385.955L340.117 385.693C351.778 384.703 363.473 383.139 374.797 379.655C380.875 377.784 398.896 373.572 400.243 364.886C400.866 360.872 399.531 356.839 398.704 352.879Z" fill="#00C0FF"/>
<path d="M318.83 181.946C335.097 194.403 366.757 184.742 357.783 160.03C356.696 157.031 355.374 154.131 354.649 151.003C353.442 145.811 353.561 140.466 353.685 135.165C353.83 128.998 353.872 122.822 354.167 116.665C348.195 115.373 343.397 114.729 337.08 114.997C331.856 115.219 326.635 114.655 321.414 114.972C321 114.947 320.589 115.072 320.237 115.328C320.109 115.482 320.009 115.663 319.943 115.862C319.876 116.061 319.844 116.273 319.849 116.486C319.15 124.806 319.849 133.235 319.29 141.574C318.983 146.242 318.437 151.577 316.595 155.927C313.771 162.584 309.57 168.766 313.609 175.992C314.978 178.371 316.756 180.398 318.83 181.946Z" fill="#F8A17A"/>
<path d="M354.41 149.884C353.471 145.059 353.715 139.986 353.83 135.116C353.975 128.949 354.017 122.772 354.307 116.615C348.362 115.323 343.538 114.68 337.247 114.947C332.022 115.17 326.801 114.606 321.576 114.947C321.163 114.923 320.754 115.048 320.404 115.304C320.276 115.457 320.176 115.638 320.109 115.837C320.042 116.036 320.01 116.248 320.015 116.462C319.316 124.781 320.015 133.21 319.457 141.55C319.3 143.947 319.006 146.329 318.578 148.682C319.397 149.419 320.233 150.127 321.09 150.775C327.539 155.67 336.236 157.298 343.952 155.051C347.653 153.989 351.184 152.244 354.41 149.884Z" fill="#E5785C"/>
<path d="M248.279 273.839L246.795 277.917H423.689L421.915 273.334L248.279 273.839Z" fill="#B8D1CE"/>
<path d="M411.486 407.628H258.938L248.011 275.844C247.961 275.29 248.011 274.731 248.158 274.201C248.306 273.672 248.546 273.184 248.866 272.769C249.185 272.353 249.575 272.02 250.012 271.79C250.449 271.56 250.922 271.439 251.402 271.434H419.023C419.504 271.436 419.98 271.554 420.419 271.783C420.858 272.011 421.251 272.344 421.573 272.759C421.894 273.175 422.137 273.664 422.286 274.195C422.434 274.727 422.485 275.288 422.435 275.844L411.486 407.628Z" fill="#B8D1CE"/>
<path d="M412.685 411.355H257.74L246.65 279.57C246.602 279.012 246.656 278.449 246.808 277.916C246.959 277.383 247.205 276.894 247.53 276.478C247.855 276.063 248.251 275.731 248.693 275.504C249.135 275.277 249.613 275.16 250.096 275.161H420.337C420.82 275.16 421.298 275.277 421.74 275.504C422.182 275.731 422.578 276.063 422.903 276.478C423.228 276.894 423.474 277.383 423.625 277.916C423.777 278.449 423.831 279.012 423.783 279.57L412.685 411.355Z" fill="white"/>
<path d="M412.587 411.355H257.74V419.353H412.587V411.355Z" fill="#B8D1CE"/>
<path d="M345.956 343.258C345.956 345.724 345.326 348.134 344.145 350.184C342.965 352.234 341.287 353.832 339.324 354.776C337.361 355.72 335.2 355.967 333.116 355.486C331.032 355.004 329.118 353.817 327.615 352.074C326.113 350.33 325.089 348.108 324.675 345.69C324.26 343.272 324.473 340.765 325.286 338.487C326.099 336.209 327.476 334.262 329.243 332.892C331.01 331.522 333.087 330.791 335.212 330.791C336.623 330.79 338.021 331.112 339.324 331.738C340.628 332.365 341.813 333.283 342.811 334.441C343.808 335.598 344.6 336.973 345.139 338.486C345.679 339.999 345.957 341.62 345.956 343.258Z" fill="#B8D1CE"/>
<path d="M326.771 440.219C321.154 442.56 315.516 444.822 309.873 446.911C304.098 449.044 270.991 455.221 277.56 470.024C278.839 472.929 281.974 473.879 284.742 474.478C300.673 477.893 316.889 476.354 332.977 474.112" fill="#F8A17A"/>
<path d="M302.797 477.002C295.973 479.289 288.602 480.432 282.183 482.14C279.291 482.907 276.395 483.679 273.465 484.223C268.808 485.085 264.082 485.377 259.39 485.664L249.128 486.297C247.269 486.411 245.319 486.505 243.622 485.604C241.596 484.525 240.295 482.229 239.101 480.041C236.734 475.706 233.927 471.627 231.948 467.015C230.668 463.996 229.308 461.046 230.728 457.73C231.487 456.139 232.478 454.714 233.658 453.518C235.083 451.877 236.672 450.441 238.393 449.242C244.117 445.456 250.194 447.119 256.268 448.554C262.696 450.068 269.123 451.801 275.692 452.251C282.763 452.746 289.814 451.716 296.834 450.87" fill="#D5EFF7"/>
<path d="M278.805 487.163L282.055 486.916C284.614 486.733 287.792 486.391 289.767 484.283C290.086 483.967 290.341 483.573 290.513 483.13C290.897 482.016 290.368 480.699 289.541 479.982C288.668 479.328 287.671 478.934 286.636 478.834C287.822 479.041 289.622 473.919 289.822 472.974C290.403 470.282 290.608 467.5 290.428 464.733C290.223 462.224 289.669 459.818 288.244 457.888C287.515 456.898 284.973 453.884 283.65 454.33C284.798 453.944 285.357 452.281 285.032 450.949C284.708 449.618 283.633 448.673 282.499 448.237C281.342 447.872 280.142 447.733 278.946 447.826C272.672 447.93 266.3 448.435 260.094 447.02C254.74 445.764 249.261 445.396 243.818 445.926C239.617 446.345 235.506 447.581 231.658 449.583C230.608 450.125 229.608 450.788 228.672 451.563C216.09 462.006 225.525 480.363 236.525 486.386C244.663 490.841 253.001 489.633 261.625 488.727C267.362 488.133 273.056 487.609 278.805 487.163Z" fill="#D74034"/>
<path d="M364.621 123.049C359.69 129.953 352.78 134.502 345.939 138.674C344.259 139.699 342.553 140.718 340.706 141.218C335.042 142.752 329.322 139.189 324.596 135.279C318.062 129.827 312.163 123.417 307.045 116.209C301.905 108.964 299.031 101.05 295.678 92.527C292.326 84.0043 291.562 75.3183 292.266 65.9394C292.996 56.3081 288.355 47.7013 290.454 37.9611C291.816 31.7233 294.999 26.2262 299.462 22.4054C301.893 20.3416 304.712 18.8024 307.702 18.446C314.39 17.6046 320.071 22.9004 326.69 23.2419C333.31 23.5834 339.78 20.7672 346.187 19.0944C351.787 17.6096 357.92 16.8028 363.478 19.0102C369.662 21.4849 372.639 26.9291 376.06 33.3087C378.981 38.7529 383.383 42.8163 386.898 47.6617C391.589 54.1254 393.099 62.3462 391.589 70.76C390.274 78.0336 387.991 85.025 384.82 91.4827C382.104 96.9714 379.148 102.757 375.953 107.959C373.518 111.918 370.835 114.843 368.003 118.298C366.792 119.728 365.768 121.436 364.621 123.049Z" fill="#0B2D4E"/>
<path d="M370.677 90.0077C370.571 82.0889 369.564 74.6204 367.76 68.414C359.967 41.6383 331.037 35.3379 313.81 54.8183C294.616 76.5457 302.468 127.87 323.048 145.692C325.823 148.058 329.022 149.668 332.407 150.402C335.792 151.135 339.276 150.973 342.6 149.929C362.612 143.45 371.014 114.695 370.677 90.0077Z" fill="#F8A17A"/>
<path d="M375.403 68.3249C366.638 41.5691 333.988 35.3033 314.518 54.8134C309.967 59.3717 305.134 66.5531 303.002 73.1257C300.741 80.1636 301.334 87.9439 301.957 95.3975C302.443 89.2258 304.942 83.6776 308.427 79.0649C310.167 76.81 312.066 74.7274 314.104 72.8387C314.838 72.1507 320.357 66.3304 319.828 65.5335C321.79 68.5031 323.739 71.4727 326.763 72.9575C330.546 74.8184 334.479 75.8973 338.475 76.9169C345.543 78.6986 351.079 81.005 356.205 87.1421C360.944 92.814 364.378 99.8667 366.655 107.281C367.376 109.622 368.604 113.22 371.244 112.176C371.871 111.928 377.305 107.226 377.361 106.9C378.303 101.307 378.739 95.6161 378.662 89.9187C378.559 82.0147 377.438 74.5264 375.403 68.3249Z" fill="#E5785C"/>
<path d="M359.78 84.6625C361.537 87.9983 362.616 91.7548 363.678 95.4668C365.359 101.342 366.664 107.657 368.843 113.284C376.184 108.137 381.025 96.0112 384.368 87.2411C387.354 79.4608 388.169 73.2742 385.648 65.1128C384.023 59.8369 380.909 55.1499 377.211 51.1311C366.548 39.525 350.537 33.6156 335.101 34.7984C329.676 35.2092 325.257 37.4265 320.173 39.139C315.482 40.7128 311.92 41.7423 308.487 46.2065C305.433 50.166 303.471 55.1153 301.935 60.1388C299.427 68.32 298.011 76.7535 298.562 85.4445C298.916 90.9976 298.945 96.5012 303.68 99.5252C303.597 96.2257 303.515 92.9179 303.432 89.6019C303.347 88.0194 303.398 86.431 303.586 84.8605C303.825 83.474 304.171 82.1156 304.622 80.8021C305.902 76.7486 307.049 73.4969 309.446 70.1561C312.581 65.7909 316.723 61.8364 317.601 56.2388C325.027 64.6129 333.809 69.8592 343.546 73.7592C349.735 76.2339 356.026 77.6543 359.699 84.514L359.78 84.6625Z" fill="#0B2D4E"/>
<path d="M370.818 90.7155C379.655 84.9743 382.513 99.2184 381.054 106.34C380.496 109.304 379.432 112.108 377.924 114.586C375.838 117.857 369.82 123.321 366.327 119.807C364.732 118.209 364.548 115.472 364.476 113.027C364.279 106.484 364.847 94.6056 370.818 90.7155Z" fill="#F8A17A"/>
<path d="M306.96 90.7155C298.122 84.9743 295.265 99.2184 296.723 106.34C297.28 109.304 298.343 112.108 299.85 114.586C301.935 117.857 307.954 123.321 311.447 119.807C313.042 118.209 313.225 115.472 313.298 113.027C313.498 106.484 312.948 94.6056 306.96 90.7155Z" fill="#F8A17A"/>
<path d="M294.365 67.5182C294.288 63.336 291.895 59.7824 290.07 56.1794C287.26 50.4835 286.11 43.8874 286.79 37.3721C287.173 33.585 288.302 29.9508 290.087 26.7499C291.873 23.5491 294.269 20.8672 297.09 18.9112C299.162 17.4703 301.464 16.5299 303.857 16.1463C306.25 15.7628 308.685 15.944 311.016 16.6791C315.371 18.1193 318.906 21.9847 323.133 23.3309C332.606 26.3352 342.327 17.3918 351.318 15.2438C360.236 13.1008 369.773 16.5851 374.234 26.9934C375.996 31.0964 376.768 35.8526 379.071 39.5349C382.91 45.6819 390.297 47.7161 393.351 54.4917C398.341 65.5632 388.425 81.7424 383.379 90.3443" stroke="#0B2D4E" stroke-width="3" stroke-miterlimit="10"/>
<path d="M316.748 34.8331C324.097 35.3824 331.25 33.5413 338.437 31.8635C342.064 31.1124 345.736 30.679 349.42 30.5668C351.258 30.5074 353.105 30.5173 354.943 30.6014C356.803 30.6419 358.657 30.8554 360.488 31.2399C364.262 32.0718 367.637 34.4939 369.965 38.0402C371.112 39.9308 371.436 42.262 371.56 44.3901C371.684 46.5183 371.637 48.6465 372.016 50.6411C372.396 52.6357 373.249 54.4224 374.341 56.0853C375.433 57.7483 376.653 59.4063 377.493 61.3662C378.274 63.3371 378.709 65.4688 378.772 67.6369C378.836 69.7647 378.769 71.8949 378.572 74.0116C378.635 71.8956 378.594 69.7771 378.448 67.6666C378.306 65.5798 377.806 63.547 376.977 61.6879C376.124 59.8616 374.9 58.3026 373.748 56.6297C372.597 54.9569 371.517 53.0465 371.116 50.8638C370.647 48.7158 370.656 46.5332 370.524 44.4594C370.391 42.3857 370.063 40.3565 369.061 38.748C368.557 37.9263 367.964 37.1842 367.295 36.5406C366.632 35.8662 365.918 35.2617 365.162 34.7341C363.638 33.7001 361.974 32.9722 360.24 32.5812C358.475 32.1901 356.684 31.9651 354.888 31.9081C353.076 31.8058 351.261 31.7728 349.441 31.8091C345.807 31.9063 342.181 32.2666 338.586 32.888C335.003 33.5463 331.382 34.4173 327.731 34.8677C324.081 35.3384 320.396 35.3268 316.748 34.8331Z" fill="#73B8D4"/>
<path d="M319.981 478.146C327.492 477.096 349.995 473.122 357.404 472.206C394.596 467.554 431.396 460.496 465.85 442.714C473.792 438.596 482.173 431.825 486.63 423.016C498.317 399.798 478.479 375.948 457.665 381.362C422.904 390.41 394.464 407.208 360.884 421.026C355.28 423.332 345.201 428.272 339.52 430.712C334.641 432.805 318.275 438.477 313.362 440.521" fill="#0B2D4E"/>
<path d="M333.941 563.041C335.758 569.42 337.635 575.77 339.635 582.021C341.678 588.416 357.391 621.467 343.721 624.486C341.034 625.08 338.543 622.873 336.496 620.774C324.728 608.693 316.053 593.395 307.919 577.785" fill="#F8A17A"/>
<path d="M324.042 606.283C326.631 613.707 330.265 620.918 332.977 627.629C334.201 630.653 335.421 633.682 336.816 636.607C339.03 641.249 341.657 645.605 344.28 649.97L349.995 659.443C351.032 661.165 352.128 662.952 353.74 663.897C355.664 665.051 357.954 664.833 360.104 664.58C364.369 664.085 368.741 664.14 372.959 663.135C375.719 662.482 378.47 661.913 379.783 658.681C380.377 657.057 380.722 655.325 380.803 653.563C381.037 651.321 381.037 649.055 380.803 646.812C379.877 639.468 375.151 635.078 370.566 630.549C365.73 625.753 360.756 621.091 356.525 615.538C351.979 609.554 348.421 602.67 344.805 595.964" fill="#D5EFF7"/>
<path d="M331.689 633.623L329.906 630.594C328.503 628.218 326.827 625.194 327.036 622.18C327.05 621.708 327.157 621.246 327.347 620.829C327.851 619.839 329.032 619.507 330 619.809C330.951 620.195 331.806 620.844 332.491 621.7C331.638 620.779 333.95 616.122 334.449 615.375C335.878 613.255 337.592 611.417 339.524 609.93C341.299 608.614 343.214 607.664 345.338 607.777C346.425 607.832 349.927 608.272 350.426 609.722C350 608.475 350.742 606.966 351.821 606.481C352.375 606.277 352.962 606.227 353.536 606.336C354.109 606.444 354.652 606.707 355.122 607.104C356.054 607.911 356.864 608.891 357.519 610.005C361.2 615.637 364.676 621.586 369.312 626.243C373.338 630.24 376.855 634.879 379.758 640.022C381.992 643.998 383.634 648.381 384.616 652.989C384.885 654.253 385.045 655.544 385.093 656.845C385.733 674.241 368.007 676.845 357.468 670.703C349.675 666.144 345.487 658.032 340.928 649.846C337.887 644.348 334.833 638.988 331.689 633.623Z" fill="#D74034"/>
<path d="M313.021 591.722C309.225 584.437 298.395 562.11 294.578 554.983C275.419 519.23 258.077 482.377 249.201 441.204C247.17 431.702 246.603 420.234 249.755 411.014C258.064 386.762 285.625 390.118 294.493 411.81C309.306 448.039 315.238 483.293 326.204 521.323C328.034 527.668 330.802 539.561 332.602 546.07C334.142 551.647 340.185 569.549 341.772 575.127" fill="#0B2D4E"/>
</g>
<defs>
<clipPath id="clip0">
<rect width="685" height="710" fill="white"/>
</clipPath>
</defs>
</svg>
